<?xml version="1.0" standalone="no"?>
<!DOCTYPE svg PUBLIC "-//W3C//DTD SVG 20010904//EN"
 "http://www.w3.org/TR/2001/REC-SVG-20010904/DTD/svg10.dtd">
<svg version="1.0" xmlns="http://www.w3.org/2000/svg"
 width="500.000000pt" height="500.000000pt" viewBox="0 0 500.000000 500.000000"
 preserveAspectRatio="xMidYMid meet">

<g transform="translate(0.000000,500.000000) scale(0.100000,-0.100000)"
fill="#000000" stroke="none">
<path d="M2850 4789 c-486 -61 -785 -371 -840 -871 -5 -54 -10 -259 -10 -457
l0 -360 -370 -3 -370 -3 -27 -28 -28 -27 0 -390 0 -390 28 -27 27 -28 370 -3
370 -3 2 -969 3 -970 28 -27 27 -28 390 0 390 0 27 28 28 27 3 970 2 970 371
0 c404 0 415 1 437 57 18 44 93 749 83 775 -5 13 -19 32 -31 43 -21 19 -38 20
-442 23 l-419 3 3 292 c3 284 4 293 27 337 32 61 76 107 136 138 l50 27 312 5
313 5 27 28 28 27 3 362 c3 383 1 403 -43 432 -42 28 -747 55 -905 35z"/>
</g>
</svg>
